G04 #@! TF.GenerationSoftware,KiCad,Pcbnew,5.0.0-rc3-unknown-3df2743~65~ubuntu14.04.1*
G04 #@! TF.CreationDate,2018-07-06T17:22:35-07:00*
G04 #@! TF.ProjectId,directionalCoupler,646972656374696F6E616C436F75706C,rev?*
G04 #@! TF.SameCoordinates,Original*
G04 #@! TF.FileFunction,Legend,Top*
G04 #@! TF.FilePolarity,Positive*
%FSLAX46Y46*%
G04 Gerber Fmt 4.6, Leading zero omitted, Abs format (unit mm)*
G04 Created by KiCad (PCBNEW 5.0.0-rc3-unknown-3df2743~65~ubuntu14.04.1) date Fri Jul  6 17:22:35 2018*
%MOMM*%
%LPD*%
G01*
G04 APERTURE LIST*
%ADD10C,0.100000*%
%ADD11C,0.150000*%
%ADD12C,0.300000*%
%ADD13C,0.400000*%
%ADD14C,0.120000*%
G04 APERTURE END LIST*
D10*
D11*
X299989000Y-253002200D02*
X299989000Y-285002200D01*
X407989000Y-285002200D01*
X407989000Y-253002200D01*
X299989000Y-253002200D01*
D10*
D11*
X10000000Y-10000000D02*
X10000000Y-287002200D01*
X409989000Y-287002200D01*
X409989000Y-10000000D01*
X10000000Y-10000000D01*
D10*
D11*
X12000000Y-12000000D02*
X12000000Y-285002200D01*
X407989000Y-285002200D01*
X407989000Y-12000000D01*
X12000000Y-12000000D01*
D10*
D11*
X60000000Y-12000000D02*
X60000000Y-10000000D01*
D10*
D11*
X110000000Y-12000000D02*
X110000000Y-10000000D01*
D10*
D11*
X160000000Y-12000000D02*
X160000000Y-10000000D01*
D10*
D11*
X210000000Y-12000000D02*
X210000000Y-10000000D01*
D10*
D11*
X260000000Y-12000000D02*
X260000000Y-10000000D01*
D10*
D11*
X310000000Y-12000000D02*
X310000000Y-10000000D01*
D10*
D11*
X360000000Y-12000000D02*
X360000000Y-10000000D01*
D10*
D11*
X36065476Y-11588095D02*
X35322619Y-11588095D01*
X35694047Y-11588095D02*
X35694047Y-10288095D01*
X35570238Y-10473809D01*
X35446428Y-10597619D01*
X35322619Y-10659523D01*
D10*
D11*
X85322619Y-10411904D02*
X85384523Y-10350000D01*
X85508333Y-10288095D01*
X85817857Y-10288095D01*
X85941666Y-10350000D01*
X86003571Y-10411904D01*
X86065476Y-10535714D01*
X86065476Y-10659523D01*
X86003571Y-10845238D01*
X85260714Y-11588095D01*
X86065476Y-11588095D01*
D10*
D11*
X135260714Y-10288095D02*
X136065476Y-10288095D01*
X135632142Y-10783333D01*
X135817857Y-10783333D01*
X135941666Y-10845238D01*
X136003571Y-10907142D01*
X136065476Y-11030952D01*
X136065476Y-11340476D01*
X136003571Y-11464285D01*
X135941666Y-11526190D01*
X135817857Y-11588095D01*
X135446428Y-11588095D01*
X135322619Y-11526190D01*
X135260714Y-11464285D01*
D10*
D11*
X185941666Y-10721428D02*
X185941666Y-11588095D01*
X185632142Y-10226190D02*
X185322619Y-11154761D01*
X186127380Y-11154761D01*
D10*
D11*
X236003571Y-10288095D02*
X235384523Y-10288095D01*
X235322619Y-10907142D01*
X235384523Y-10845238D01*
X235508333Y-10783333D01*
X235817857Y-10783333D01*
X235941666Y-10845238D01*
X236003571Y-10907142D01*
X236065476Y-11030952D01*
X236065476Y-11340476D01*
X236003571Y-11464285D01*
X235941666Y-11526190D01*
X235817857Y-11588095D01*
X235508333Y-11588095D01*
X235384523Y-11526190D01*
X235322619Y-11464285D01*
D10*
D11*
X285941666Y-10288095D02*
X285694047Y-10288095D01*
X285570238Y-10350000D01*
X285508333Y-10411904D01*
X285384523Y-10597619D01*
X285322619Y-10845238D01*
X285322619Y-11340476D01*
X285384523Y-11464285D01*
X285446428Y-11526190D01*
X285570238Y-11588095D01*
X285817857Y-11588095D01*
X285941666Y-11526190D01*
X286003571Y-11464285D01*
X286065476Y-11340476D01*
X286065476Y-11030952D01*
X286003571Y-10907142D01*
X285941666Y-10845238D01*
X285817857Y-10783333D01*
X285570238Y-10783333D01*
X285446428Y-10845238D01*
X285384523Y-10907142D01*
X285322619Y-11030952D01*
D10*
D11*
X335260714Y-10288095D02*
X336127380Y-10288095D01*
X335570238Y-11588095D01*
D10*
D11*
X385570238Y-10845238D02*
X385446428Y-10783333D01*
X385384523Y-10721428D01*
X385322619Y-10597619D01*
X385322619Y-10535714D01*
X385384523Y-10411904D01*
X385446428Y-10350000D01*
X385570238Y-10288095D01*
X385817857Y-10288095D01*
X385941666Y-10350000D01*
X386003571Y-10411904D01*
X386065476Y-10535714D01*
X386065476Y-10597619D01*
X386003571Y-10721428D01*
X385941666Y-10783333D01*
X385817857Y-10845238D01*
X385570238Y-10845238D01*
X385446428Y-10907142D01*
X385384523Y-10969047D01*
X385322619Y-11092857D01*
X385322619Y-11340476D01*
X385384523Y-11464285D01*
X385446428Y-11526190D01*
X385570238Y-11588095D01*
X385817857Y-11588095D01*
X385941666Y-11526190D01*
X386003571Y-11464285D01*
X386065476Y-11340476D01*
X386065476Y-11092857D01*
X386003571Y-10969047D01*
X385941666Y-10907142D01*
X385817857Y-10845238D01*
D10*
D11*
X60000000Y-285002200D02*
X60000000Y-287002200D01*
D10*
D11*
X110000000Y-285002200D02*
X110000000Y-287002200D01*
D10*
D11*
X160000000Y-285002200D02*
X160000000Y-287002200D01*
D10*
D11*
X210000000Y-285002200D02*
X210000000Y-287002200D01*
D10*
D11*
X260000000Y-285002200D02*
X260000000Y-287002200D01*
D10*
D11*
X310000000Y-285002200D02*
X310000000Y-287002200D01*
D10*
D11*
X360000000Y-285002200D02*
X360000000Y-287002200D01*
D10*
D11*
X36065476Y-286590295D02*
X35322619Y-286590295D01*
X35694047Y-286590295D02*
X35694047Y-285290295D01*
X35570238Y-285476009D01*
X35446428Y-285599819D01*
X35322619Y-285661723D01*
D10*
D11*
X85322619Y-285414104D02*
X85384523Y-285352200D01*
X85508333Y-285290295D01*
X85817857Y-285290295D01*
X85941666Y-285352200D01*
X86003571Y-285414104D01*
X86065476Y-285537914D01*
X86065476Y-285661723D01*
X86003571Y-285847438D01*
X85260714Y-286590295D01*
X86065476Y-286590295D01*
D10*
D11*
X135260714Y-285290295D02*
X136065476Y-285290295D01*
X135632142Y-285785533D01*
X135817857Y-285785533D01*
X135941666Y-285847438D01*
X136003571Y-285909342D01*
X136065476Y-286033152D01*
X136065476Y-286342676D01*
X136003571Y-286466485D01*
X135941666Y-286528390D01*
X135817857Y-286590295D01*
X135446428Y-286590295D01*
X135322619Y-286528390D01*
X135260714Y-286466485D01*
D10*
D11*
X185941666Y-285723628D02*
X185941666Y-286590295D01*
X185632142Y-285228390D02*
X185322619Y-286156961D01*
X186127380Y-286156961D01*
D10*
D11*
X236003571Y-285290295D02*
X235384523Y-285290295D01*
X235322619Y-285909342D01*
X235384523Y-285847438D01*
X235508333Y-285785533D01*
X235817857Y-285785533D01*
X235941666Y-285847438D01*
X236003571Y-285909342D01*
X236065476Y-286033152D01*
X236065476Y-286342676D01*
X236003571Y-286466485D01*
X235941666Y-286528390D01*
X235817857Y-286590295D01*
X235508333Y-286590295D01*
X235384523Y-286528390D01*
X235322619Y-286466485D01*
D10*
D11*
X285941666Y-285290295D02*
X285694047Y-285290295D01*
X285570238Y-285352200D01*
X285508333Y-285414104D01*
X285384523Y-285599819D01*
X285322619Y-285847438D01*
X285322619Y-286342676D01*
X285384523Y-286466485D01*
X285446428Y-286528390D01*
X285570238Y-286590295D01*
X285817857Y-286590295D01*
X285941666Y-286528390D01*
X286003571Y-286466485D01*
X286065476Y-286342676D01*
X286065476Y-286033152D01*
X286003571Y-285909342D01*
X285941666Y-285847438D01*
X285817857Y-285785533D01*
X285570238Y-285785533D01*
X285446428Y-285847438D01*
X285384523Y-285909342D01*
X285322619Y-286033152D01*
D10*
D11*
X335260714Y-285290295D02*
X336127380Y-285290295D01*
X335570238Y-286590295D01*
D10*
D11*
X385570238Y-285847438D02*
X385446428Y-285785533D01*
X385384523Y-285723628D01*
X385322619Y-285599819D01*
X385322619Y-285537914D01*
X385384523Y-285414104D01*
X385446428Y-285352200D01*
X385570238Y-285290295D01*
X385817857Y-285290295D01*
X385941666Y-285352200D01*
X386003571Y-285414104D01*
X386065476Y-285537914D01*
X386065476Y-285599819D01*
X386003571Y-285723628D01*
X385941666Y-285785533D01*
X385817857Y-285847438D01*
X385570238Y-285847438D01*
X385446428Y-285909342D01*
X385384523Y-285971247D01*
X385322619Y-286095057D01*
X385322619Y-286342676D01*
X385384523Y-286466485D01*
X385446428Y-286528390D01*
X385570238Y-286590295D01*
X385817857Y-286590295D01*
X385941666Y-286528390D01*
X386003571Y-286466485D01*
X386065476Y-286342676D01*
X386065476Y-286095057D01*
X386003571Y-285971247D01*
X385941666Y-285909342D01*
X385817857Y-285847438D01*
D10*
D11*
X10000000Y-60000000D02*
X12000000Y-60000000D01*
D10*
D11*
X10000000Y-110000000D02*
X12000000Y-110000000D01*
D10*
D11*
X10000000Y-160000000D02*
X12000000Y-160000000D01*
D10*
D11*
X10000000Y-210000000D02*
X12000000Y-210000000D01*
D10*
D11*
X10000000Y-260000000D02*
X12000000Y-260000000D01*
D10*
D11*
X10690476Y-35216666D02*
X11309523Y-35216666D01*
X10566666Y-35588095D02*
X11000000Y-34288095D01*
X11433333Y-35588095D01*
D10*
D11*
X11092857Y-84907142D02*
X11278571Y-84969047D01*
X11340476Y-85030952D01*
X11402380Y-85154761D01*
X11402380Y-85340476D01*
X11340476Y-85464285D01*
X11278571Y-85526190D01*
X11154761Y-85588095D01*
X10659523Y-85588095D01*
X10659523Y-84288095D01*
X11092857Y-84288095D01*
X11216666Y-84350000D01*
X11278571Y-84411904D01*
X11340476Y-84535714D01*
X11340476Y-84659523D01*
X11278571Y-84783333D01*
X11216666Y-84845238D01*
X11092857Y-84907142D01*
X10659523Y-84907142D01*
D10*
D11*
X11402380Y-135464285D02*
X11340476Y-135526190D01*
X11154761Y-135588095D01*
X11030952Y-135588095D01*
X10845238Y-135526190D01*
X10721428Y-135402380D01*
X10659523Y-135278571D01*
X10597619Y-135030952D01*
X10597619Y-134845238D01*
X10659523Y-134597619D01*
X10721428Y-134473809D01*
X10845238Y-134350000D01*
X11030952Y-134288095D01*
X11154761Y-134288095D01*
X11340476Y-134350000D01*
X11402380Y-134411904D01*
D10*
D11*
X10659523Y-185588095D02*
X10659523Y-184288095D01*
X10969047Y-184288095D01*
X11154761Y-184350000D01*
X11278571Y-184473809D01*
X11340476Y-184597619D01*
X11402380Y-184845238D01*
X11402380Y-185030952D01*
X11340476Y-185278571D01*
X11278571Y-185402380D01*
X11154761Y-185526190D01*
X10969047Y-185588095D01*
X10659523Y-185588095D01*
D10*
D11*
X10721428Y-234907142D02*
X11154761Y-234907142D01*
X11340476Y-235588095D02*
X10721428Y-235588095D01*
X10721428Y-234288095D01*
X11340476Y-234288095D01*
D10*
D11*
X11185714Y-284907142D02*
X10752380Y-284907142D01*
X10752380Y-285588095D02*
X10752380Y-284288095D01*
X11371428Y-284288095D01*
D10*
D11*
X409989000Y-60000000D02*
X407989000Y-60000000D01*
D10*
D11*
X409989000Y-110000000D02*
X407989000Y-110000000D01*
D10*
D11*
X409989000Y-160000000D02*
X407989000Y-160000000D01*
D10*
D11*
X409989000Y-210000000D02*
X407989000Y-210000000D01*
D10*
D11*
X409989000Y-260000000D02*
X407989000Y-260000000D01*
D10*
D11*
X408679476Y-35216666D02*
X409298523Y-35216666D01*
X408555666Y-35588095D02*
X408989000Y-34288095D01*
X409422333Y-35588095D01*
D10*
D11*
X409081857Y-84907142D02*
X409267571Y-84969047D01*
X409329476Y-85030952D01*
X409391380Y-85154761D01*
X409391380Y-85340476D01*
X409329476Y-85464285D01*
X409267571Y-85526190D01*
X409143761Y-85588095D01*
X408648523Y-85588095D01*
X408648523Y-84288095D01*
X409081857Y-84288095D01*
X409205666Y-84350000D01*
X409267571Y-84411904D01*
X409329476Y-84535714D01*
X409329476Y-84659523D01*
X409267571Y-84783333D01*
X409205666Y-84845238D01*
X409081857Y-84907142D01*
X408648523Y-84907142D01*
D10*
D11*
X409391380Y-135464285D02*
X409329476Y-135526190D01*
X409143761Y-135588095D01*
X409019952Y-135588095D01*
X408834238Y-135526190D01*
X408710428Y-135402380D01*
X408648523Y-135278571D01*
X408586619Y-135030952D01*
X408586619Y-134845238D01*
X408648523Y-134597619D01*
X408710428Y-134473809D01*
X408834238Y-134350000D01*
X409019952Y-134288095D01*
X409143761Y-134288095D01*
X409329476Y-134350000D01*
X409391380Y-134411904D01*
D10*
D11*
X408648523Y-185588095D02*
X408648523Y-184288095D01*
X408958047Y-184288095D01*
X409143761Y-184350000D01*
X409267571Y-184473809D01*
X409329476Y-184597619D01*
X409391380Y-184845238D01*
X409391380Y-185030952D01*
X409329476Y-185278571D01*
X409267571Y-185402380D01*
X409143761Y-185526190D01*
X408958047Y-185588095D01*
X408648523Y-185588095D01*
D10*
D11*
X408710428Y-234907142D02*
X409143761Y-234907142D01*
X409329476Y-235588095D02*
X408710428Y-235588095D01*
X408710428Y-234288095D01*
X409329476Y-234288095D01*
D10*
D11*
X409174714Y-284907142D02*
X408741380Y-284907142D01*
X408741380Y-285588095D02*
X408741380Y-284288095D01*
X409360428Y-284288095D01*
D10*
D11*
X323421142Y-280780771D02*
X323421142Y-279280771D01*
X323778285Y-279280771D01*
X323992571Y-279352200D01*
X324135428Y-279495057D01*
X324206857Y-279637914D01*
X324278285Y-279923628D01*
X324278285Y-280137914D01*
X324206857Y-280423628D01*
X324135428Y-280566485D01*
X323992571Y-280709342D01*
X323778285Y-280780771D01*
X323421142Y-280780771D01*
X325564000Y-280780771D02*
X325564000Y-279995057D01*
X325492571Y-279852200D01*
X325349714Y-279780771D01*
X325064000Y-279780771D01*
X324921142Y-279852200D01*
X325564000Y-280709342D02*
X325421142Y-280780771D01*
X325064000Y-280780771D01*
X324921142Y-280709342D01*
X324849714Y-280566485D01*
X324849714Y-280423628D01*
X324921142Y-280280771D01*
X325064000Y-280209342D01*
X325421142Y-280209342D01*
X325564000Y-280137914D01*
X326064000Y-279780771D02*
X326635428Y-279780771D01*
X326278285Y-279280771D02*
X326278285Y-280566485D01*
X326349714Y-280709342D01*
X326492571Y-280780771D01*
X326635428Y-280780771D01*
X327706857Y-280709342D02*
X327564000Y-280780771D01*
X327278285Y-280780771D01*
X327135428Y-280709342D01*
X327064000Y-280566485D01*
X327064000Y-279995057D01*
X327135428Y-279852200D01*
X327278285Y-279780771D01*
X327564000Y-279780771D01*
X327706857Y-279852200D01*
X327778285Y-279995057D01*
X327778285Y-280137914D01*
X327064000Y-280280771D01*
X328421142Y-280637914D02*
X328492571Y-280709342D01*
X328421142Y-280780771D01*
X328349714Y-280709342D01*
X328421142Y-280637914D01*
X328421142Y-280780771D01*
X328421142Y-279852200D02*
X328492571Y-279923628D01*
X328421142Y-279995057D01*
X328349714Y-279923628D01*
X328421142Y-279852200D01*
X328421142Y-279995057D01*
D10*
D11*
X299989000Y-281502200D02*
X407989000Y-281502200D01*
D10*
D11*
X301421142Y-283580771D02*
X301421142Y-282080771D01*
X302278285Y-283580771D02*
X301635428Y-282723628D01*
X302278285Y-282080771D02*
X301421142Y-282937914D01*
X302921142Y-283580771D02*
X302921142Y-282580771D01*
X302921142Y-282080771D02*
X302849714Y-282152200D01*
X302921142Y-282223628D01*
X302992571Y-282152200D01*
X302921142Y-282080771D01*
X302921142Y-282223628D01*
X304492571Y-283437914D02*
X304421142Y-283509342D01*
X304206857Y-283580771D01*
X304064000Y-283580771D01*
X303849714Y-283509342D01*
X303706857Y-283366485D01*
X303635428Y-283223628D01*
X303564000Y-282937914D01*
X303564000Y-282723628D01*
X303635428Y-282437914D01*
X303706857Y-282295057D01*
X303849714Y-282152200D01*
X304064000Y-282080771D01*
X304206857Y-282080771D01*
X304421142Y-282152200D01*
X304492571Y-282223628D01*
X305778285Y-283580771D02*
X305778285Y-282795057D01*
X305706857Y-282652200D01*
X305564000Y-282580771D01*
X305278285Y-282580771D01*
X305135428Y-282652200D01*
X305778285Y-283509342D02*
X305635428Y-283580771D01*
X305278285Y-283580771D01*
X305135428Y-283509342D01*
X305064000Y-283366485D01*
X305064000Y-283223628D01*
X305135428Y-283080771D01*
X305278285Y-283009342D01*
X305635428Y-283009342D01*
X305778285Y-282937914D01*
X307135428Y-283580771D02*
X307135428Y-282080771D01*
X307135428Y-283509342D02*
X306992571Y-283580771D01*
X306706857Y-283580771D01*
X306564000Y-283509342D01*
X306492571Y-283437914D01*
X306421142Y-283295057D01*
X306421142Y-282866485D01*
X306492571Y-282723628D01*
X306564000Y-282652200D01*
X306706857Y-282580771D01*
X306992571Y-282580771D01*
X307135428Y-282652200D01*
X308992571Y-282795057D02*
X309492571Y-282795057D01*
X309706857Y-283580771D02*
X308992571Y-283580771D01*
X308992571Y-282080771D01*
X309706857Y-282080771D01*
X310349714Y-283437914D02*
X310421142Y-283509342D01*
X310349714Y-283580771D01*
X310278285Y-283509342D01*
X310349714Y-283437914D01*
X310349714Y-283580771D01*
X311064000Y-283580771D02*
X311064000Y-282080771D01*
X311421142Y-282080771D01*
X311635428Y-282152200D01*
X311778285Y-282295057D01*
X311849714Y-282437914D01*
X311921142Y-282723628D01*
X311921142Y-282937914D01*
X311849714Y-283223628D01*
X311778285Y-283366485D01*
X311635428Y-283509342D01*
X311421142Y-283580771D01*
X311064000Y-283580771D01*
X312564000Y-283437914D02*
X312635428Y-283509342D01*
X312564000Y-283580771D01*
X312492571Y-283509342D01*
X312564000Y-283437914D01*
X312564000Y-283580771D01*
X313206857Y-283152200D02*
X313921142Y-283152200D01*
X313064000Y-283580771D02*
X313564000Y-282080771D01*
X314064000Y-283580771D01*
X314564000Y-283437914D02*
X314635428Y-283509342D01*
X314564000Y-283580771D01*
X314492571Y-283509342D01*
X314564000Y-283437914D01*
X314564000Y-283580771D01*
X317564000Y-282580771D02*
X317564000Y-284080771D01*
X317564000Y-282652200D02*
X317706857Y-282580771D01*
X317992571Y-282580771D01*
X318135428Y-282652200D01*
X318206857Y-282723628D01*
X318278285Y-282866485D01*
X318278285Y-283295057D01*
X318206857Y-283437914D01*
X318135428Y-283509342D01*
X317992571Y-283580771D01*
X317706857Y-283580771D01*
X317564000Y-283509342D01*
X319564000Y-283509342D02*
X319421142Y-283580771D01*
X319135428Y-283580771D01*
X318992571Y-283509342D01*
X318921142Y-283437914D01*
X318849714Y-283295057D01*
X318849714Y-282866485D01*
X318921142Y-282723628D01*
X318992571Y-282652200D01*
X319135428Y-282580771D01*
X319421142Y-282580771D01*
X319564000Y-282652200D01*
X320206857Y-283580771D02*
X320206857Y-282080771D01*
X320206857Y-282652200D02*
X320349714Y-282580771D01*
X320635428Y-282580771D01*
X320778285Y-282652200D01*
X320849714Y-282723628D01*
X320921142Y-282866485D01*
X320921142Y-283295057D01*
X320849714Y-283437914D01*
X320778285Y-283509342D01*
X320635428Y-283580771D01*
X320349714Y-283580771D01*
X320206857Y-283509342D01*
X321564000Y-282580771D02*
X321564000Y-283580771D01*
X321564000Y-282723628D02*
X321635428Y-282652200D01*
X321778285Y-282580771D01*
X321992571Y-282580771D01*
X322135428Y-282652200D01*
X322206857Y-282795057D01*
X322206857Y-283580771D01*
X323492571Y-283509342D02*
X323349714Y-283580771D01*
X323064000Y-283580771D01*
X322921142Y-283509342D01*
X322849714Y-283366485D01*
X322849714Y-282795057D01*
X322921142Y-282652200D01*
X323064000Y-282580771D01*
X323349714Y-282580771D01*
X323492571Y-282652200D01*
X323564000Y-282795057D01*
X323564000Y-282937914D01*
X322849714Y-283080771D01*
X324064000Y-282580771D02*
X324349714Y-283580771D01*
X324635428Y-282866485D01*
X324921142Y-283580771D01*
X325206857Y-282580771D01*
X327635428Y-282080771D02*
X326921142Y-282080771D01*
X326849714Y-282795057D01*
X326921142Y-282723628D01*
X327064000Y-282652200D01*
X327421142Y-282652200D01*
X327564000Y-282723628D01*
X327635428Y-282795057D01*
X327706857Y-282937914D01*
X327706857Y-283295057D01*
X327635428Y-283437914D01*
X327564000Y-283509342D01*
X327421142Y-283580771D01*
X327064000Y-283580771D01*
X326921142Y-283509342D01*
X326849714Y-283437914D01*
X328349714Y-283437914D02*
X328421142Y-283509342D01*
X328349714Y-283580771D01*
X328278285Y-283509342D01*
X328349714Y-283437914D01*
X328349714Y-283580771D01*
X329349714Y-282080771D02*
X329492571Y-282080771D01*
X329635428Y-282152200D01*
X329706857Y-282223628D01*
X329778285Y-282366485D01*
X329849714Y-282652200D01*
X329849714Y-283009342D01*
X329778285Y-283295057D01*
X329706857Y-283437914D01*
X329635428Y-283509342D01*
X329492571Y-283580771D01*
X329349714Y-283580771D01*
X329206857Y-283509342D01*
X329135428Y-283437914D01*
X329064000Y-283295057D01*
X328992571Y-283009342D01*
X328992571Y-282652200D01*
X329064000Y-282366485D01*
X329135428Y-282223628D01*
X329206857Y-282152200D01*
X329349714Y-282080771D01*
X330492571Y-283437914D02*
X330564000Y-283509342D01*
X330492571Y-283580771D01*
X330421142Y-283509342D01*
X330492571Y-283437914D01*
X330492571Y-283580771D01*
X331492571Y-282080771D02*
X331635428Y-282080771D01*
X331778285Y-282152200D01*
X331849714Y-282223628D01*
X331921142Y-282366485D01*
X331992571Y-282652200D01*
X331992571Y-283009342D01*
X331921142Y-283295057D01*
X331849714Y-283437914D01*
X331778285Y-283509342D01*
X331635428Y-283580771D01*
X331492571Y-283580771D01*
X331349714Y-283509342D01*
X331278285Y-283437914D01*
X331206857Y-283295057D01*
X331135428Y-283009342D01*
X331135428Y-282652200D01*
X331206857Y-282366485D01*
X331278285Y-282223628D01*
X331349714Y-282152200D01*
X331492571Y-282080771D01*
X332635428Y-283009342D02*
X333778285Y-283009342D01*
X334492571Y-283580771D02*
X334492571Y-282580771D01*
X334492571Y-282866485D02*
X334564000Y-282723628D01*
X334635428Y-282652200D01*
X334778285Y-282580771D01*
X334921142Y-282580771D01*
X336064000Y-283509342D02*
X335921142Y-283580771D01*
X335635428Y-283580771D01*
X335492571Y-283509342D01*
X335421142Y-283437914D01*
X335349714Y-283295057D01*
X335349714Y-282866485D01*
X335421142Y-282723628D01*
X335492571Y-282652200D01*
X335635428Y-282580771D01*
X335921142Y-282580771D01*
X336064000Y-282652200D01*
X336564000Y-282080771D02*
X337492571Y-282080771D01*
X336992571Y-282652200D01*
X337206857Y-282652200D01*
X337349714Y-282723628D01*
X337421142Y-282795057D01*
X337492571Y-282937914D01*
X337492571Y-283295057D01*
X337421142Y-283437914D01*
X337349714Y-283509342D01*
X337206857Y-283580771D01*
X336778285Y-283580771D01*
X336635428Y-283509342D01*
X336564000Y-283437914D01*
X338135428Y-283009342D02*
X339278285Y-283009342D01*
X340635428Y-282580771D02*
X340635428Y-283580771D01*
X339992571Y-282580771D02*
X339992571Y-283366485D01*
X340064000Y-283509342D01*
X340206857Y-283580771D01*
X340421142Y-283580771D01*
X340564000Y-283509342D01*
X340635428Y-283437914D01*
X341349714Y-282580771D02*
X341349714Y-283580771D01*
X341349714Y-282723628D02*
X341421142Y-282652200D01*
X341564000Y-282580771D01*
X341778285Y-282580771D01*
X341921142Y-282652200D01*
X341992571Y-282795057D01*
X341992571Y-283580771D01*
X342706857Y-283580771D02*
X342706857Y-282080771D01*
X342849714Y-283009342D02*
X343278285Y-283580771D01*
X343278285Y-282580771D02*
X342706857Y-283152200D01*
X343921142Y-282580771D02*
X343921142Y-283580771D01*
X343921142Y-282723628D02*
X343992571Y-282652200D01*
X344135428Y-282580771D01*
X344349714Y-282580771D01*
X344492571Y-282652200D01*
X344564000Y-282795057D01*
X344564000Y-283580771D01*
X345492571Y-283580771D02*
X345349714Y-283509342D01*
X345278285Y-283437914D01*
X345206857Y-283295057D01*
X345206857Y-282866485D01*
X345278285Y-282723628D01*
X345349714Y-282652200D01*
X345492571Y-282580771D01*
X345706857Y-282580771D01*
X345849714Y-282652200D01*
X345921142Y-282723628D01*
X345992571Y-282866485D01*
X345992571Y-283295057D01*
X345921142Y-283437914D01*
X345849714Y-283509342D01*
X345706857Y-283580771D01*
X345492571Y-283580771D01*
X346492571Y-282580771D02*
X346778285Y-283580771D01*
X347064000Y-282866485D01*
X347349714Y-283580771D01*
X347635428Y-282580771D01*
X348206857Y-282580771D02*
X348206857Y-283580771D01*
X348206857Y-282723628D02*
X348278285Y-282652200D01*
X348421142Y-282580771D01*
X348635428Y-282580771D01*
X348778285Y-282652200D01*
X348849714Y-282795057D01*
X348849714Y-283580771D01*
X349564000Y-283009342D02*
X350706857Y-283009342D01*
X351278285Y-282080771D02*
X352206857Y-282080771D01*
X351706857Y-282652200D01*
X351921142Y-282652200D01*
X352064000Y-282723628D01*
X352135428Y-282795057D01*
X352206857Y-282937914D01*
X352206857Y-283295057D01*
X352135428Y-283437914D01*
X352064000Y-283509342D01*
X351921142Y-283580771D01*
X351492571Y-283580771D01*
X351349714Y-283509342D01*
X351278285Y-283437914D01*
X353492571Y-283580771D02*
X353492571Y-282080771D01*
X353492571Y-283509342D02*
X353349714Y-283580771D01*
X353064000Y-283580771D01*
X352921142Y-283509342D01*
X352849714Y-283437914D01*
X352778285Y-283295057D01*
X352778285Y-282866485D01*
X352849714Y-282723628D01*
X352921142Y-282652200D01*
X353064000Y-282580771D01*
X353349714Y-282580771D01*
X353492571Y-282652200D01*
X353992571Y-282580771D02*
X354564000Y-282580771D01*
X354206857Y-283580771D02*
X354206857Y-282295057D01*
X354278285Y-282152200D01*
X354421142Y-282080771D01*
X354564000Y-282080771D01*
X354992571Y-282223628D02*
X355064000Y-282152200D01*
X355206857Y-282080771D01*
X355564000Y-282080771D01*
X355706857Y-282152200D01*
X355778285Y-282223628D01*
X355849714Y-282366485D01*
X355849714Y-282509342D01*
X355778285Y-282723628D01*
X354921142Y-283580771D01*
X355849714Y-283580771D01*
X356349714Y-282080771D02*
X357349714Y-282080771D01*
X356706857Y-283580771D01*
X358564000Y-282580771D02*
X358564000Y-283580771D01*
X358206857Y-282009342D02*
X357849714Y-283080771D01*
X358778285Y-283080771D01*
X359206857Y-282080771D02*
X360135428Y-282080771D01*
X359635428Y-282652200D01*
X359849714Y-282652200D01*
X359992571Y-282723628D01*
X360064000Y-282795057D01*
X360135428Y-282937914D01*
X360135428Y-283295057D01*
X360064000Y-283437914D01*
X359992571Y-283509342D01*
X359849714Y-283580771D01*
X359421142Y-283580771D01*
X359278285Y-283509342D01*
X359206857Y-283437914D01*
X360421142Y-281672200D02*
X361849714Y-281672200D01*
X361421142Y-282080771D02*
X361135428Y-282080771D01*
X360992571Y-282152200D01*
X360921142Y-282223628D01*
X360778285Y-282437914D01*
X360706857Y-282723628D01*
X360706857Y-283295057D01*
X360778285Y-283437914D01*
X360849714Y-283509342D01*
X360992571Y-283580771D01*
X361278285Y-283580771D01*
X361421142Y-283509342D01*
X361492571Y-283437914D01*
X361564000Y-283295057D01*
X361564000Y-282937914D01*
X361492571Y-282795057D01*
X361421142Y-282723628D01*
X361278285Y-282652200D01*
X360992571Y-282652200D01*
X360849714Y-282723628D01*
X360778285Y-282795057D01*
X360706857Y-282937914D01*
X361849714Y-281672200D02*
X363278285Y-281672200D01*
X362921142Y-282080771D02*
X362206857Y-282080771D01*
X362135428Y-282795057D01*
X362206857Y-282723628D01*
X362349714Y-282652200D01*
X362706857Y-282652200D01*
X362849714Y-282723628D01*
X362921142Y-282795057D01*
X362992571Y-282937914D01*
X362992571Y-283295057D01*
X362921142Y-283437914D01*
X362849714Y-283509342D01*
X362706857Y-283580771D01*
X362349714Y-283580771D01*
X362206857Y-283509342D01*
X362135428Y-283437914D01*
X364278285Y-282580771D02*
X364278285Y-283580771D01*
X363635428Y-282580771D02*
X363635428Y-283366485D01*
X363706857Y-283509342D01*
X363849714Y-283580771D01*
X364064000Y-283580771D01*
X364206857Y-283509342D01*
X364278285Y-283437914D01*
X364992571Y-283580771D02*
X364992571Y-282080771D01*
X364992571Y-282652200D02*
X365135428Y-282580771D01*
X365421142Y-282580771D01*
X365564000Y-282652200D01*
X365635428Y-282723628D01*
X365706857Y-282866485D01*
X365706857Y-283295057D01*
X365635428Y-283437914D01*
X365564000Y-283509342D01*
X365421142Y-283580771D01*
X365135428Y-283580771D01*
X364992571Y-283509342D01*
X366992571Y-282580771D02*
X366992571Y-283580771D01*
X366349714Y-282580771D02*
X366349714Y-283366485D01*
X366421142Y-283509342D01*
X366564000Y-283580771D01*
X366778285Y-283580771D01*
X366921142Y-283509342D01*
X366992571Y-283437914D01*
X367706857Y-282580771D02*
X367706857Y-283580771D01*
X367706857Y-282723628D02*
X367778285Y-282652200D01*
X367921142Y-282580771D01*
X368135428Y-282580771D01*
X368278285Y-282652200D01*
X368349714Y-282795057D01*
X368349714Y-283580771D01*
X368849714Y-282580771D02*
X369421142Y-282580771D01*
X369064000Y-282080771D02*
X369064000Y-283366485D01*
X369135428Y-283509342D01*
X369278285Y-283580771D01*
X369421142Y-283580771D01*
X370564000Y-282580771D02*
X370564000Y-283580771D01*
X369921142Y-282580771D02*
X369921142Y-283366485D01*
X369992571Y-283509342D01*
X370135428Y-283580771D01*
X370349714Y-283580771D01*
X370492571Y-283509342D01*
X370564000Y-283437914D01*
X372064000Y-283580771D02*
X371206857Y-283580771D01*
X371635428Y-283580771D02*
X371635428Y-282080771D01*
X371492571Y-282295057D01*
X371349714Y-282437914D01*
X371206857Y-282509342D01*
X373349714Y-282580771D02*
X373349714Y-283580771D01*
X372992571Y-282009342D02*
X372635428Y-283080771D01*
X373564000Y-283080771D01*
X374135428Y-283437914D02*
X374206857Y-283509342D01*
X374135428Y-283580771D01*
X374064000Y-283509342D01*
X374135428Y-283437914D01*
X374135428Y-283580771D01*
X375135428Y-282080771D02*
X375278285Y-282080771D01*
X375421142Y-282152200D01*
X375492571Y-282223628D01*
X375564000Y-282366485D01*
X375635428Y-282652200D01*
X375635428Y-283009342D01*
X375564000Y-283295057D01*
X375492571Y-283437914D01*
X375421142Y-283509342D01*
X375278285Y-283580771D01*
X375135428Y-283580771D01*
X374992571Y-283509342D01*
X374921142Y-283437914D01*
X374849714Y-283295057D01*
X374778285Y-283009342D01*
X374778285Y-282652200D01*
X374849714Y-282366485D01*
X374921142Y-282223628D01*
X374992571Y-282152200D01*
X375135428Y-282080771D01*
X376921142Y-282580771D02*
X376921142Y-283580771D01*
X376564000Y-282009342D02*
X376206857Y-283080771D01*
X377135428Y-283080771D01*
X377706857Y-283437914D02*
X377778285Y-283509342D01*
X377706857Y-283580771D01*
X377635428Y-283509342D01*
X377706857Y-283437914D01*
X377706857Y-283580771D01*
X379206857Y-283580771D02*
X378349714Y-283580771D01*
X378778285Y-283580771D02*
X378778285Y-282080771D01*
X378635428Y-282295057D01*
X378492571Y-282437914D01*
X378349714Y-282509342D01*
D10*
D11*
X299989000Y-278502200D02*
X407989000Y-278502200D01*
D10*
D12*
X387398285Y-280780771D02*
X386898285Y-280066485D01*
X386541142Y-280780771D02*
X386541142Y-279280771D01*
X387112571Y-279280771D01*
X387255428Y-279352200D01*
X387326857Y-279423628D01*
X387398285Y-279566485D01*
X387398285Y-279780771D01*
X387326857Y-279923628D01*
X387255428Y-279995057D01*
X387112571Y-280066485D01*
X386541142Y-280066485D01*
X388612571Y-280709342D02*
X388469714Y-280780771D01*
X388184000Y-280780771D01*
X388041142Y-280709342D01*
X387969714Y-280566485D01*
X387969714Y-279995057D01*
X388041142Y-279852200D01*
X388184000Y-279780771D01*
X388469714Y-279780771D01*
X388612571Y-279852200D01*
X388684000Y-279995057D01*
X388684000Y-280137914D01*
X387969714Y-280280771D01*
X389184000Y-279780771D02*
X389541142Y-280780771D01*
X389898285Y-279780771D01*
X390469714Y-280637914D02*
X390541142Y-280709342D01*
X390469714Y-280780771D01*
X390398285Y-280709342D01*
X390469714Y-280637914D01*
X390469714Y-280780771D01*
X390469714Y-279852200D02*
X390541142Y-279923628D01*
X390469714Y-279995057D01*
X390398285Y-279923628D01*
X390469714Y-279852200D01*
X390469714Y-279995057D01*
D10*
D11*
X301349714Y-280709342D02*
X301564000Y-280780771D01*
X301921142Y-280780771D01*
X302064000Y-280709342D01*
X302135428Y-280637914D01*
X302206857Y-280495057D01*
X302206857Y-280352200D01*
X302135428Y-280209342D01*
X302064000Y-280137914D01*
X301921142Y-280066485D01*
X301635428Y-279995057D01*
X301492571Y-279923628D01*
X301421142Y-279852200D01*
X301349714Y-279709342D01*
X301349714Y-279566485D01*
X301421142Y-279423628D01*
X301492571Y-279352200D01*
X301635428Y-279280771D01*
X301992571Y-279280771D01*
X302206857Y-279352200D01*
X302849714Y-280780771D02*
X302849714Y-279780771D01*
X302849714Y-279280771D02*
X302778285Y-279352200D01*
X302849714Y-279423628D01*
X302921142Y-279352200D01*
X302849714Y-279280771D01*
X302849714Y-279423628D01*
X303421142Y-279780771D02*
X304206857Y-279780771D01*
X303421142Y-280780771D01*
X304206857Y-280780771D01*
X305349714Y-280709342D02*
X305206857Y-280780771D01*
X304921142Y-280780771D01*
X304778285Y-280709342D01*
X304706857Y-280566485D01*
X304706857Y-279995057D01*
X304778285Y-279852200D01*
X304921142Y-279780771D01*
X305206857Y-279780771D01*
X305349714Y-279852200D01*
X305421142Y-279995057D01*
X305421142Y-280137914D01*
X304706857Y-280280771D01*
X306064000Y-280637914D02*
X306135428Y-280709342D01*
X306064000Y-280780771D01*
X305992571Y-280709342D01*
X306064000Y-280637914D01*
X306064000Y-280780771D01*
X306064000Y-279852200D02*
X306135428Y-279923628D01*
X306064000Y-279995057D01*
X305992571Y-279923628D01*
X306064000Y-279852200D01*
X306064000Y-279995057D01*
X307849714Y-280352200D02*
X308564000Y-280352200D01*
X307706857Y-280780771D02*
X308206857Y-279280771D01*
X308706857Y-280780771D01*
X309064000Y-279280771D02*
X309992571Y-279280771D01*
X309492571Y-279852200D01*
X309706857Y-279852200D01*
X309849714Y-279923628D01*
X309921142Y-279995057D01*
X309992571Y-280137914D01*
X309992571Y-280495057D01*
X309921142Y-280637914D01*
X309849714Y-280709342D01*
X309706857Y-280780771D01*
X309278285Y-280780771D01*
X309135428Y-280709342D01*
X309064000Y-280637914D01*
D10*
D11*
X386421142Y-283580771D02*
X386421142Y-282080771D01*
X387778285Y-283580771D02*
X387778285Y-282080771D01*
X387778285Y-283509342D02*
X387635428Y-283580771D01*
X387349714Y-283580771D01*
X387206857Y-283509342D01*
X387135428Y-283437914D01*
X387064000Y-283295057D01*
X387064000Y-282866485D01*
X387135428Y-282723628D01*
X387206857Y-282652200D01*
X387349714Y-282580771D01*
X387635428Y-282580771D01*
X387778285Y-282652200D01*
X388492571Y-283437914D02*
X388564000Y-283509342D01*
X388492571Y-283580771D01*
X388421142Y-283509342D01*
X388492571Y-283437914D01*
X388492571Y-283580771D01*
X388492571Y-282652200D02*
X388564000Y-282723628D01*
X388492571Y-282795057D01*
X388421142Y-282723628D01*
X388492571Y-282652200D01*
X388492571Y-282795057D01*
X391135428Y-283580771D02*
X390278285Y-283580771D01*
X390706857Y-283580771D02*
X390706857Y-282080771D01*
X390564000Y-282295057D01*
X390421142Y-282437914D01*
X390278285Y-282509342D01*
X392849714Y-282009342D02*
X391564000Y-283937914D01*
X394135428Y-283580771D02*
X393278285Y-283580771D01*
X393706857Y-283580771D02*
X393706857Y-282080771D01*
X393564000Y-282295057D01*
X393421142Y-282437914D01*
X393278285Y-282509342D01*
D10*
D11*
X299989000Y-274502200D02*
X407989000Y-274502200D01*
D10*
D13*
X301701380Y-275206961D02*
X302844238Y-275206961D01*
X302022809Y-277206961D02*
X302272809Y-275206961D01*
X303260904Y-277206961D02*
X303427571Y-275873628D01*
X303510904Y-275206961D02*
X303403761Y-275302200D01*
X303487095Y-275397438D01*
X303594238Y-275302200D01*
X303510904Y-275206961D01*
X303487095Y-275397438D01*
X304094238Y-275873628D02*
X304856142Y-275873628D01*
X304463285Y-275206961D02*
X304249000Y-276921247D01*
X304320428Y-277111723D01*
X304499000Y-277206961D01*
X304689476Y-277206961D01*
X305641857Y-277206961D02*
X305463285Y-277111723D01*
X305391857Y-276921247D01*
X305606142Y-275206961D01*
X307177571Y-277111723D02*
X306975190Y-277206961D01*
X306594238Y-277206961D01*
X306415666Y-277111723D01*
X306344238Y-276921247D01*
X306439476Y-276159342D01*
X306558523Y-275968866D01*
X306760904Y-275873628D01*
X307141857Y-275873628D01*
X307320428Y-275968866D01*
X307391857Y-276159342D01*
X307368047Y-276349819D01*
X306391857Y-276540295D01*
X308141857Y-277016485D02*
X308225190Y-277111723D01*
X308118047Y-277206961D01*
X308034714Y-277111723D01*
X308141857Y-277016485D01*
X308118047Y-277206961D01*
X308272809Y-275968866D02*
X308356142Y-276064104D01*
X308249000Y-276159342D01*
X308165666Y-276064104D01*
X308272809Y-275968866D01*
X308249000Y-276159342D01*
D10*
D11*
X301921142Y-272595057D02*
X301421142Y-272595057D01*
X301421142Y-273380771D02*
X301421142Y-271880771D01*
X302135428Y-271880771D01*
X302706857Y-273380771D02*
X302706857Y-272380771D01*
X302706857Y-271880771D02*
X302635428Y-271952200D01*
X302706857Y-272023628D01*
X302778285Y-271952200D01*
X302706857Y-271880771D01*
X302706857Y-272023628D01*
X303635428Y-273380771D02*
X303492571Y-273309342D01*
X303421142Y-273166485D01*
X303421142Y-271880771D01*
X304778285Y-273309342D02*
X304635428Y-273380771D01*
X304349714Y-273380771D01*
X304206857Y-273309342D01*
X304135428Y-273166485D01*
X304135428Y-272595057D01*
X304206857Y-272452200D01*
X304349714Y-272380771D01*
X304635428Y-272380771D01*
X304778285Y-272452200D01*
X304849714Y-272595057D01*
X304849714Y-272737914D01*
X304135428Y-272880771D01*
X305492571Y-273237914D02*
X305564000Y-273309342D01*
X305492571Y-273380771D01*
X305421142Y-273309342D01*
X305492571Y-273237914D01*
X305492571Y-273380771D01*
X305492571Y-272452200D02*
X305564000Y-272523628D01*
X305492571Y-272595057D01*
X305421142Y-272523628D01*
X305492571Y-272452200D01*
X305492571Y-272595057D01*
X307992571Y-273380771D02*
X307992571Y-271880771D01*
X307992571Y-273309342D02*
X307849714Y-273380771D01*
X307564000Y-273380771D01*
X307421142Y-273309342D01*
X307349714Y-273237914D01*
X307278285Y-273095057D01*
X307278285Y-272666485D01*
X307349714Y-272523628D01*
X307421142Y-272452200D01*
X307564000Y-272380771D01*
X307849714Y-272380771D01*
X307992571Y-272452200D01*
X308706857Y-273380771D02*
X308706857Y-272380771D01*
X308706857Y-271880771D02*
X308635428Y-271952200D01*
X308706857Y-272023628D01*
X308778285Y-271952200D01*
X308706857Y-271880771D01*
X308706857Y-272023628D01*
X309421142Y-273380771D02*
X309421142Y-272380771D01*
X309421142Y-272666485D02*
X309492571Y-272523628D01*
X309564000Y-272452200D01*
X309706857Y-272380771D01*
X309849714Y-272380771D01*
X310921142Y-273309342D02*
X310778285Y-273380771D01*
X310492571Y-273380771D01*
X310349714Y-273309342D01*
X310278285Y-273166485D01*
X310278285Y-272595057D01*
X310349714Y-272452200D01*
X310492571Y-272380771D01*
X310778285Y-272380771D01*
X310921142Y-272452200D01*
X310992571Y-272595057D01*
X310992571Y-272737914D01*
X310278285Y-272880771D01*
X312278285Y-273309342D02*
X312135428Y-273380771D01*
X311849714Y-273380771D01*
X311706857Y-273309342D01*
X311635428Y-273237914D01*
X311564000Y-273095057D01*
X311564000Y-272666485D01*
X311635428Y-272523628D01*
X311706857Y-272452200D01*
X311849714Y-272380771D01*
X312135428Y-272380771D01*
X312278285Y-272452200D01*
X312706857Y-272380771D02*
X313278285Y-272380771D01*
X312921142Y-271880771D02*
X312921142Y-273166485D01*
X312992571Y-273309342D01*
X313135428Y-273380771D01*
X313278285Y-273380771D01*
X313778285Y-273380771D02*
X313778285Y-272380771D01*
X313778285Y-271880771D02*
X313706857Y-271952200D01*
X313778285Y-272023628D01*
X313849714Y-271952200D01*
X313778285Y-271880771D01*
X313778285Y-272023628D01*
X314706857Y-273380771D02*
X314564000Y-273309342D01*
X314492571Y-273237914D01*
X314421142Y-273095057D01*
X314421142Y-272666485D01*
X314492571Y-272523628D01*
X314564000Y-272452200D01*
X314706857Y-272380771D01*
X314921142Y-272380771D01*
X315064000Y-272452200D01*
X315135428Y-272523628D01*
X315206857Y-272666485D01*
X315206857Y-273095057D01*
X315135428Y-273237914D01*
X315064000Y-273309342D01*
X314921142Y-273380771D01*
X314706857Y-273380771D01*
X315849714Y-272380771D02*
X315849714Y-273380771D01*
X315849714Y-272523628D02*
X315921142Y-272452200D01*
X316064000Y-272380771D01*
X316278285Y-272380771D01*
X316421142Y-272452200D01*
X316492571Y-272595057D01*
X316492571Y-273380771D01*
X317849714Y-273380771D02*
X317849714Y-272595057D01*
X317778285Y-272452200D01*
X317635428Y-272380771D01*
X317349714Y-272380771D01*
X317206857Y-272452200D01*
X317849714Y-273309342D02*
X317706857Y-273380771D01*
X317349714Y-273380771D01*
X317206857Y-273309342D01*
X317135428Y-273166485D01*
X317135428Y-273023628D01*
X317206857Y-272880771D01*
X317349714Y-272809342D01*
X317706857Y-272809342D01*
X317849714Y-272737914D01*
X318778285Y-273380771D02*
X318635428Y-273309342D01*
X318564000Y-273166485D01*
X318564000Y-271880771D01*
X320206857Y-273237914D02*
X320135428Y-273309342D01*
X319921142Y-273380771D01*
X319778285Y-273380771D01*
X319564000Y-273309342D01*
X319421142Y-273166485D01*
X319349714Y-273023628D01*
X319278285Y-272737914D01*
X319278285Y-272523628D01*
X319349714Y-272237914D01*
X319421142Y-272095057D01*
X319564000Y-271952200D01*
X319778285Y-271880771D01*
X319921142Y-271880771D01*
X320135428Y-271952200D01*
X320206857Y-272023628D01*
X321064000Y-273380771D02*
X320921142Y-273309342D01*
X320849714Y-273237914D01*
X320778285Y-273095057D01*
X320778285Y-272666485D01*
X320849714Y-272523628D01*
X320921142Y-272452200D01*
X321064000Y-272380771D01*
X321278285Y-272380771D01*
X321421142Y-272452200D01*
X321492571Y-272523628D01*
X321564000Y-272666485D01*
X321564000Y-273095057D01*
X321492571Y-273237914D01*
X321421142Y-273309342D01*
X321278285Y-273380771D01*
X321064000Y-273380771D01*
X322849714Y-272380771D02*
X322849714Y-273380771D01*
X322206857Y-272380771D02*
X322206857Y-273166485D01*
X322278285Y-273309342D01*
X322421142Y-273380771D01*
X322635428Y-273380771D01*
X322778285Y-273309342D01*
X322849714Y-273237914D01*
X323564000Y-272380771D02*
X323564000Y-273880771D01*
X323564000Y-272452200D02*
X323706857Y-272380771D01*
X323992571Y-272380771D01*
X324135428Y-272452200D01*
X324206857Y-272523628D01*
X324278285Y-272666485D01*
X324278285Y-273095057D01*
X324206857Y-273237914D01*
X324135428Y-273309342D01*
X323992571Y-273380771D01*
X323706857Y-273380771D01*
X323564000Y-273309342D01*
X325135428Y-273380771D02*
X324992571Y-273309342D01*
X324921142Y-273166485D01*
X324921142Y-271880771D01*
X326278285Y-273309342D02*
X326135428Y-273380771D01*
X325849714Y-273380771D01*
X325706857Y-273309342D01*
X325635428Y-273166485D01*
X325635428Y-272595057D01*
X325706857Y-272452200D01*
X325849714Y-272380771D01*
X326135428Y-272380771D01*
X326278285Y-272452200D01*
X326349714Y-272595057D01*
X326349714Y-272737914D01*
X325635428Y-272880771D01*
X326992571Y-273380771D02*
X326992571Y-272380771D01*
X326992571Y-272666485D02*
X327064000Y-272523628D01*
X327135428Y-272452200D01*
X327278285Y-272380771D01*
X327421142Y-272380771D01*
X327921142Y-273237914D02*
X327992571Y-273309342D01*
X327921142Y-273380771D01*
X327849714Y-273309342D01*
X327921142Y-273237914D01*
X327921142Y-273380771D01*
X328635428Y-273380771D02*
X328635428Y-271880771D01*
X328778285Y-272809342D02*
X329206857Y-273380771D01*
X329206857Y-272380771D02*
X328635428Y-272952200D01*
X329849714Y-273380771D02*
X329849714Y-272380771D01*
X329849714Y-271880771D02*
X329778285Y-271952200D01*
X329849714Y-272023628D01*
X329921142Y-271952200D01*
X329849714Y-271880771D01*
X329849714Y-272023628D01*
X331206857Y-273309342D02*
X331064000Y-273380771D01*
X330778285Y-273380771D01*
X330635428Y-273309342D01*
X330564000Y-273237914D01*
X330492571Y-273095057D01*
X330492571Y-272666485D01*
X330564000Y-272523628D01*
X330635428Y-272452200D01*
X330778285Y-272380771D01*
X331064000Y-272380771D01*
X331206857Y-272452200D01*
X332492571Y-273380771D02*
X332492571Y-272595057D01*
X332421142Y-272452200D01*
X332278285Y-272380771D01*
X331992571Y-272380771D01*
X331849714Y-272452200D01*
X332492571Y-273309342D02*
X332349714Y-273380771D01*
X331992571Y-273380771D01*
X331849714Y-273309342D01*
X331778285Y-273166485D01*
X331778285Y-273023628D01*
X331849714Y-272880771D01*
X331992571Y-272809342D01*
X332349714Y-272809342D01*
X332492571Y-272737914D01*
X333849714Y-273380771D02*
X333849714Y-271880771D01*
X333849714Y-273309342D02*
X333706857Y-273380771D01*
X333421142Y-273380771D01*
X333278285Y-273309342D01*
X333206857Y-273237914D01*
X333135428Y-273095057D01*
X333135428Y-272666485D01*
X333206857Y-272523628D01*
X333278285Y-272452200D01*
X333421142Y-272380771D01*
X333706857Y-272380771D01*
X333849714Y-272452200D01*
X334206857Y-273523628D02*
X335349714Y-273523628D01*
X335706857Y-272380771D02*
X335706857Y-273880771D01*
X335706857Y-272452200D02*
X335849714Y-272380771D01*
X336135428Y-272380771D01*
X336278285Y-272452200D01*
X336349714Y-272523628D01*
X336421142Y-272666485D01*
X336421142Y-273095057D01*
X336349714Y-273237914D01*
X336278285Y-273309342D01*
X336135428Y-273380771D01*
X335849714Y-273380771D01*
X335706857Y-273309342D01*
X337706857Y-273309342D02*
X337564000Y-273380771D01*
X337278285Y-273380771D01*
X337135428Y-273309342D01*
X337064000Y-273237914D01*
X336992571Y-273095057D01*
X336992571Y-272666485D01*
X337064000Y-272523628D01*
X337135428Y-272452200D01*
X337278285Y-272380771D01*
X337564000Y-272380771D01*
X337706857Y-272452200D01*
X338349714Y-273380771D02*
X338349714Y-271880771D01*
X338349714Y-272452200D02*
X338492571Y-272380771D01*
X338778285Y-272380771D01*
X338921142Y-272452200D01*
X338992571Y-272523628D01*
X339064000Y-272666485D01*
X339064000Y-273095057D01*
X338992571Y-273237914D01*
X338921142Y-273309342D01*
X338778285Y-273380771D01*
X338492571Y-273380771D01*
X338349714Y-273309342D01*
D10*
D11*
X299989000Y-268502200D02*
X407989000Y-268502200D01*
D10*
D11*
X301349714Y-270609342D02*
X301564000Y-270680771D01*
X301921142Y-270680771D01*
X302064000Y-270609342D01*
X302135428Y-270537914D01*
X302206857Y-270395057D01*
X302206857Y-270252200D01*
X302135428Y-270109342D01*
X302064000Y-270037914D01*
X301921142Y-269966485D01*
X301635428Y-269895057D01*
X301492571Y-269823628D01*
X301421142Y-269752200D01*
X301349714Y-269609342D01*
X301349714Y-269466485D01*
X301421142Y-269323628D01*
X301492571Y-269252200D01*
X301635428Y-269180771D01*
X301992571Y-269180771D01*
X302206857Y-269252200D01*
X302849714Y-270680771D02*
X302849714Y-269180771D01*
X303492571Y-270680771D02*
X303492571Y-269895057D01*
X303421142Y-269752200D01*
X303278285Y-269680771D01*
X303064000Y-269680771D01*
X302921142Y-269752200D01*
X302849714Y-269823628D01*
X304778285Y-270609342D02*
X304635428Y-270680771D01*
X304349714Y-270680771D01*
X304206857Y-270609342D01*
X304135428Y-270466485D01*
X304135428Y-269895057D01*
X304206857Y-269752200D01*
X304349714Y-269680771D01*
X304635428Y-269680771D01*
X304778285Y-269752200D01*
X304849714Y-269895057D01*
X304849714Y-270037914D01*
X304135428Y-270180771D01*
X306064000Y-270609342D02*
X305921142Y-270680771D01*
X305635428Y-270680771D01*
X305492571Y-270609342D01*
X305421142Y-270466485D01*
X305421142Y-269895057D01*
X305492571Y-269752200D01*
X305635428Y-269680771D01*
X305921142Y-269680771D01*
X306064000Y-269752200D01*
X306135428Y-269895057D01*
X306135428Y-270037914D01*
X305421142Y-270180771D01*
X306564000Y-269680771D02*
X307135428Y-269680771D01*
X306778285Y-269180771D02*
X306778285Y-270466485D01*
X306849714Y-270609342D01*
X306992571Y-270680771D01*
X307135428Y-270680771D01*
X307635428Y-270537914D02*
X307706857Y-270609342D01*
X307635428Y-270680771D01*
X307564000Y-270609342D01*
X307635428Y-270537914D01*
X307635428Y-270680771D01*
X307635428Y-269752200D02*
X307706857Y-269823628D01*
X307635428Y-269895057D01*
X307564000Y-269823628D01*
X307635428Y-269752200D01*
X307635428Y-269895057D01*
D10*
D11*
X319989000Y-278502200D02*
X319989000Y-281502200D01*
D10*
D11*
X383989000Y-278502200D02*
X383989000Y-285002200D01*
D12*
X304097857Y-75608571D02*
X304097857Y-74108571D01*
X304669285Y-74108571D01*
X304812142Y-74180000D01*
X304883571Y-74251428D01*
X304955000Y-74394285D01*
X304955000Y-74608571D01*
X304883571Y-74751428D01*
X304812142Y-74822857D01*
X304669285Y-74894285D01*
X304097857Y-74894285D01*
X305812142Y-75608571D02*
X305669285Y-75537142D01*
X305597857Y-75465714D01*
X305526428Y-75322857D01*
X305526428Y-74894285D01*
X305597857Y-74751428D01*
X305669285Y-74680000D01*
X305812142Y-74608571D01*
X306026428Y-74608571D01*
X306169285Y-74680000D01*
X306240714Y-74751428D01*
X306312142Y-74894285D01*
X306312142Y-75322857D01*
X306240714Y-75465714D01*
X306169285Y-75537142D01*
X306026428Y-75608571D01*
X305812142Y-75608571D01*
X306955000Y-75608571D02*
X306955000Y-74608571D01*
X306955000Y-74894285D02*
X307026428Y-74751428D01*
X307097857Y-74680000D01*
X307240714Y-74608571D01*
X307383571Y-74608571D01*
X307669285Y-74608571D02*
X308240714Y-74608571D01*
X307883571Y-74108571D02*
X307883571Y-75394285D01*
X307955000Y-75537142D01*
X308097857Y-75608571D01*
X308240714Y-75608571D01*
X310526428Y-74608571D02*
X310526428Y-75608571D01*
X310169285Y-74037142D02*
X309812142Y-75108571D01*
X310740714Y-75108571D01*
X70402142Y-74338571D02*
X70402142Y-72838571D01*
X70973571Y-72838571D01*
X71116428Y-72910000D01*
X71187857Y-72981428D01*
X71259285Y-73124285D01*
X71259285Y-73338571D01*
X71187857Y-73481428D01*
X71116428Y-73552857D01*
X70973571Y-73624285D01*
X70402142Y-73624285D01*
X72116428Y-74338571D02*
X71973571Y-74267142D01*
X71902142Y-74195714D01*
X71830714Y-74052857D01*
X71830714Y-73624285D01*
X71902142Y-73481428D01*
X71973571Y-73410000D01*
X72116428Y-73338571D01*
X72330714Y-73338571D01*
X72473571Y-73410000D01*
X72545000Y-73481428D01*
X72616428Y-73624285D01*
X72616428Y-74052857D01*
X72545000Y-74195714D01*
X72473571Y-74267142D01*
X72330714Y-74338571D01*
X72116428Y-74338571D01*
X73259285Y-74338571D02*
X73259285Y-73338571D01*
X73259285Y-73624285D02*
X73330714Y-73481428D01*
X73402142Y-73410000D01*
X73545000Y-73338571D01*
X73687857Y-73338571D01*
X73973571Y-73338571D02*
X74545000Y-73338571D01*
X74187857Y-72838571D02*
X74187857Y-74124285D01*
X74259285Y-74267142D01*
X74402142Y-74338571D01*
X74545000Y-74338571D01*
X76045000Y-72838571D02*
X76973571Y-72838571D01*
X76473571Y-73410000D01*
X76687857Y-73410000D01*
X76830714Y-73481428D01*
X76902142Y-73552857D01*
X76973571Y-73695714D01*
X76973571Y-74052857D01*
X76902142Y-74195714D01*
X76830714Y-74267142D01*
X76687857Y-74338571D01*
X76259285Y-74338571D01*
X76116428Y-74267142D01*
X76045000Y-74195714D01*
X349817857Y-41318571D02*
X349817857Y-39818571D01*
X350389285Y-39818571D01*
X350532142Y-39890000D01*
X350603571Y-39961428D01*
X350675000Y-40104285D01*
X350675000Y-40318571D01*
X350603571Y-40461428D01*
X350532142Y-40532857D01*
X350389285Y-40604285D01*
X349817857Y-40604285D01*
X351532142Y-41318571D02*
X351389285Y-41247142D01*
X351317857Y-41175714D01*
X351246428Y-41032857D01*
X351246428Y-40604285D01*
X351317857Y-40461428D01*
X351389285Y-40390000D01*
X351532142Y-40318571D01*
X351746428Y-40318571D01*
X351889285Y-40390000D01*
X351960714Y-40461428D01*
X352032142Y-40604285D01*
X352032142Y-41032857D01*
X351960714Y-41175714D01*
X351889285Y-41247142D01*
X351746428Y-41318571D01*
X351532142Y-41318571D01*
X352675000Y-41318571D02*
X352675000Y-40318571D01*
X352675000Y-40604285D02*
X352746428Y-40461428D01*
X352817857Y-40390000D01*
X352960714Y-40318571D01*
X353103571Y-40318571D01*
X353389285Y-40318571D02*
X353960714Y-40318571D01*
X353603571Y-39818571D02*
X353603571Y-41104285D01*
X353675000Y-41247142D01*
X353817857Y-41318571D01*
X353960714Y-41318571D01*
X356246428Y-40318571D02*
X356246428Y-41318571D01*
X355889285Y-39747142D02*
X355532142Y-40818571D01*
X356460714Y-40818571D01*
X24690000Y-40048571D02*
X24690000Y-38548571D01*
X25261428Y-38548571D01*
X25404285Y-38620000D01*
X25475714Y-38691428D01*
X25547142Y-38834285D01*
X25547142Y-39048571D01*
X25475714Y-39191428D01*
X25404285Y-39262857D01*
X25261428Y-39334285D01*
X24690000Y-39334285D01*
X26404285Y-40048571D02*
X26261428Y-39977142D01*
X26190000Y-39905714D01*
X26118571Y-39762857D01*
X26118571Y-39334285D01*
X26190000Y-39191428D01*
X26261428Y-39120000D01*
X26404285Y-39048571D01*
X26618571Y-39048571D01*
X26761428Y-39120000D01*
X26832857Y-39191428D01*
X26904285Y-39334285D01*
X26904285Y-39762857D01*
X26832857Y-39905714D01*
X26761428Y-39977142D01*
X26618571Y-40048571D01*
X26404285Y-40048571D01*
X27547142Y-40048571D02*
X27547142Y-39048571D01*
X27547142Y-39334285D02*
X27618571Y-39191428D01*
X27690000Y-39120000D01*
X27832857Y-39048571D01*
X27975714Y-39048571D01*
X28261428Y-39048571D02*
X28832857Y-39048571D01*
X28475714Y-38548571D02*
X28475714Y-39834285D01*
X28547142Y-39977142D01*
X28690000Y-40048571D01*
X28832857Y-40048571D01*
X31261428Y-40048571D02*
X30404285Y-40048571D01*
X30832857Y-40048571D02*
X30832857Y-38548571D01*
X30690000Y-38762857D01*
X30547142Y-38905714D01*
X30404285Y-38977142D01*
D14*
G04 #@! TO.C,J1*
X29110000Y-30230000D02*
X28610000Y-30480000D01*
X29110000Y-30730000D02*
X29110000Y-30230000D01*
X28610000Y-30480000D02*
X29110000Y-30730000D01*
G04 #@! TO.C,J2*
X352390000Y-30480000D02*
X351890000Y-30230000D01*
X351890000Y-30230000D02*
X351890000Y-30730000D01*
X351890000Y-30730000D02*
X352390000Y-30480000D01*
G04 #@! TO.C,J3*
X58170000Y-72490000D02*
X58420000Y-72990000D01*
X58670000Y-72490000D02*
X58170000Y-72490000D01*
X58420000Y-72990000D02*
X58670000Y-72490000D01*
G04 #@! TO.C,J4*
X322580000Y-72990000D02*
X322830000Y-72490000D01*
X322830000Y-72490000D02*
X322330000Y-72490000D01*
X322330000Y-72490000D02*
X322580000Y-72990000D01*
G04 #@! TO.C,J1*
D11*
X28812380Y-33813333D02*
X29526666Y-33813333D01*
X29669523Y-33860952D01*
X29764761Y-33956190D01*
X29812380Y-34099047D01*
X29812380Y-34194285D01*
X29812380Y-32813333D02*
X29812380Y-33384761D01*
X29812380Y-33099047D02*
X28812380Y-33099047D01*
X28955238Y-33194285D01*
X29050476Y-33289523D01*
X29098095Y-33384761D01*
G04 #@! TO.C,J2*
X351092380Y-27813333D02*
X351806666Y-27813333D01*
X351949523Y-27860952D01*
X352044761Y-27956190D01*
X352092380Y-28099047D01*
X352092380Y-28194285D01*
X351187619Y-27384761D02*
X351140000Y-27337142D01*
X351092380Y-27241904D01*
X351092380Y-27003809D01*
X351140000Y-26908571D01*
X351187619Y-26860952D01*
X351282857Y-26813333D01*
X351378095Y-26813333D01*
X351520952Y-26860952D01*
X352092380Y-27432380D01*
X352092380Y-26813333D01*
G04 #@! TO.C,J3*
X61086666Y-71692380D02*
X61086666Y-72406666D01*
X61039047Y-72549523D01*
X60943809Y-72644761D01*
X60800952Y-72692380D01*
X60705714Y-72692380D01*
X61467619Y-71692380D02*
X62086666Y-71692380D01*
X61753333Y-72073333D01*
X61896190Y-72073333D01*
X61991428Y-72120952D01*
X62039047Y-72168571D01*
X62086666Y-72263809D01*
X62086666Y-72501904D01*
X62039047Y-72597142D01*
X61991428Y-72644761D01*
X61896190Y-72692380D01*
X61610476Y-72692380D01*
X61515238Y-72644761D01*
X61467619Y-72597142D01*
G04 #@! TO.C,J4*
X325246666Y-71692380D02*
X325246666Y-72406666D01*
X325199047Y-72549523D01*
X325103809Y-72644761D01*
X324960952Y-72692380D01*
X324865714Y-72692380D01*
X326151428Y-72025714D02*
X326151428Y-72692380D01*
X325913333Y-71644761D02*
X325675238Y-72359047D01*
X326294285Y-72359047D01*
G04 #@! TO.C,MK1*
X26630476Y-14432380D02*
X26630476Y-13432380D01*
X26963809Y-14146666D01*
X27297142Y-13432380D01*
X27297142Y-14432380D01*
X27773333Y-14432380D02*
X27773333Y-13432380D01*
X28344761Y-14432380D02*
X27916190Y-13860952D01*
X28344761Y-13432380D02*
X27773333Y-14003809D01*
X29297142Y-14432380D02*
X28725714Y-14432380D01*
X29011428Y-14432380D02*
X29011428Y-13432380D01*
X28916190Y-13575238D01*
X28820952Y-13670476D01*
X28725714Y-13718095D01*
G04 #@! TO.C,MK2*
X26630476Y-70312380D02*
X26630476Y-69312380D01*
X26963809Y-70026666D01*
X27297142Y-69312380D01*
X27297142Y-70312380D01*
X27773333Y-70312380D02*
X27773333Y-69312380D01*
X28344761Y-70312380D02*
X27916190Y-69740952D01*
X28344761Y-69312380D02*
X27773333Y-69883809D01*
X28725714Y-69407619D02*
X28773333Y-69360000D01*
X28868571Y-69312380D01*
X29106666Y-69312380D01*
X29201904Y-69360000D01*
X29249523Y-69407619D01*
X29297142Y-69502857D01*
X29297142Y-69598095D01*
X29249523Y-69740952D01*
X28678095Y-70312380D01*
X29297142Y-70312380D01*
G04 #@! TO.C,MK3*
X351750476Y-14432380D02*
X351750476Y-13432380D01*
X352083809Y-14146666D01*
X352417142Y-13432380D01*
X352417142Y-14432380D01*
X352893333Y-14432380D02*
X352893333Y-13432380D01*
X353464761Y-14432380D02*
X353036190Y-13860952D01*
X353464761Y-13432380D02*
X352893333Y-14003809D01*
X353798095Y-13432380D02*
X354417142Y-13432380D01*
X354083809Y-13813333D01*
X354226666Y-13813333D01*
X354321904Y-13860952D01*
X354369523Y-13908571D01*
X354417142Y-14003809D01*
X354417142Y-14241904D01*
X354369523Y-14337142D01*
X354321904Y-14384761D01*
X354226666Y-14432380D01*
X353940952Y-14432380D01*
X353845714Y-14384761D01*
X353798095Y-14337142D01*
G04 #@! TO.C,MK4*
X351750476Y-70312380D02*
X351750476Y-69312380D01*
X352083809Y-70026666D01*
X352417142Y-69312380D01*
X352417142Y-70312380D01*
X352893333Y-70312380D02*
X352893333Y-69312380D01*
X353464761Y-70312380D02*
X353036190Y-69740952D01*
X353464761Y-69312380D02*
X352893333Y-69883809D01*
X354321904Y-69645714D02*
X354321904Y-70312380D01*
X354083809Y-69264761D02*
X353845714Y-69979047D01*
X354464761Y-69979047D01*
G04 #@! TD*
M02*
